<?xml version="1.0" encoding="UTF-8" standalone="no"?>
<!DOCTYPE svg PUBLIC "-//W3C//DTD SVG 1.1//EN"
 "http://www.w3.org/Graphics/SVG/1.1/DTD/svg11.dtd">
<!-- Generated by graphviz version 2.40.1 (20161225.0304)
 -->
<!-- Title: temp Pages: 1 -->
<svg width="362pt" height="191pt"
 viewBox="0.00 0.00 362.00 191.00" xmlns="http://www.w3.org/2000/svg" xmlns:xlink="http://www.w3.org/1999/xlink">
<g id="graph0" class="graph" transform="scale(1 1) rotate(0) translate(4 187)">
<title>temp</title>
<polygon fill="#ffffff" stroke="transparent" points="-4,4 -4,-187 358,-187 358,4 -4,4"/>
<!-- 4596800144 -->
<g id="node1" class="node">
<title>4596800144</title>
<path fill="none" stroke="#000000" d="M196,-146.5C196,-146.5 226,-146.5 226,-146.5 232,-146.5 238,-152.5 238,-158.5 238,-158.5 238,-170.5 238,-170.5 238,-176.5 232,-182.5 226,-182.5 226,-182.5 196,-182.5 196,-182.5 190,-182.5 184,-176.5 184,-170.5 184,-170.5 184,-158.5 184,-158.5 184,-152.5 190,-146.5 196,-146.5"/>
<text text-anchor="middle" x="211" y="-160.3" font-family="Times,serif" font-size="14.00" fill="#000000">22</text>
</g>
<!-- 4596799864 -->
<g id="node2" class="node">
<title>4596799864</title>
<path fill="none" stroke="#000000" d="M118,-73.5C118,-73.5 154,-73.5 154,-73.5 160,-73.5 166,-79.5 166,-85.5 166,-85.5 166,-97.5 166,-97.5 166,-103.5 160,-109.5 154,-109.5 154,-109.5 118,-109.5 118,-109.5 112,-109.5 106,-103.5 106,-97.5 106,-97.5 106,-85.5 106,-85.5 106,-79.5 112,-73.5 118,-73.5"/>
<text text-anchor="middle" x="121" y="-87.3" font-family="Times,serif" font-size="14.00" fill="#000000">15</text>
<polyline fill="none" stroke="#000000" points="136,-73.5 136,-109.5 "/>
<text text-anchor="middle" x="151" y="-87.3" font-family="Times,serif" font-size="14.00" fill="#000000">19</text>
</g>
<!-- 4596800144&#45;&#45;4596799864 -->
<g id="edge1" class="edge">
<title>4596800144&#45;&#45;4596799864</title>
<path fill="none" stroke="#000000" d="M192.4607,-146.4551C180.9221,-135.2241 166.1333,-120.8298 154.586,-109.5904"/>
</g>
<!-- 4596800088 -->
<g id="node3" class="node">
<title>4596800088</title>
<path fill="none" stroke="#000000" d="M234,-73.5C234,-73.5 264,-73.5 264,-73.5 270,-73.5 276,-79.5 276,-85.5 276,-85.5 276,-97.5 276,-97.5 276,-103.5 270,-109.5 264,-109.5 264,-109.5 234,-109.5 234,-109.5 228,-109.5 222,-103.5 222,-97.5 222,-97.5 222,-85.5 222,-85.5 222,-79.5 228,-73.5 234,-73.5"/>
<text text-anchor="middle" x="249" y="-87.3" font-family="Times,serif" font-size="14.00" fill="#000000">25</text>
</g>
<!-- 4596800144&#45;&#45;4596800088 -->
<g id="edge2" class="edge">
<title>4596800144&#45;&#45;4596800088</title>
<path fill="none" stroke="#000000" d="M220.3933,-146.4551C226.2395,-135.2241 233.7324,-120.8298 239.5831,-109.5904"/>
</g>
<!-- 4596799752 -->
<g id="node4" class="node">
<title>4596799752</title>
<path fill="none" stroke="#000000" d="M12,-.5C12,-.5 42,-.5 42,-.5 48,-.5 54,-6.5 54,-12.5 54,-12.5 54,-24.5 54,-24.5 54,-30.5 48,-36.5 42,-36.5 42,-36.5 12,-36.5 12,-36.5 6,-36.5 0,-30.5 0,-24.5 0,-24.5 0,-12.5 0,-12.5 0,-6.5 6,-.5 12,-.5"/>
<text text-anchor="middle" x="11.5" y="-14.3" font-family="Times,serif" font-size="14.00" fill="#000000">8</text>
<polyline fill="none" stroke="#000000" points="23,-.5 23,-36.5 "/>
<text text-anchor="middle" x="38.5" y="-14.3" font-family="Times,serif" font-size="14.00" fill="#000000">12</text>
</g>
<!-- 4596799864&#45;&#45;4596799752 -->
<g id="edge3" class="edge">
<title>4596799864&#45;&#45;4596799752</title>
<path fill="none" stroke="#000000" d="M109.0562,-73.4551C92.2867,-62.2241 70.7938,-47.8298 54.0116,-36.5904"/>
</g>
<!-- 4596799808 -->
<g id="node5" class="node">
<title>4596799808</title>
<path fill="none" stroke="#000000" d="M84,-.5C84,-.5 114,-.5 114,-.5 120,-.5 126,-6.5 126,-12.5 126,-12.5 126,-24.5 126,-24.5 126,-30.5 120,-36.5 114,-36.5 114,-36.5 84,-36.5 84,-36.5 78,-36.5 72,-30.5 72,-24.5 72,-24.5 72,-12.5 72,-12.5 72,-6.5 78,-.5 84,-.5"/>
<text text-anchor="middle" x="99" y="-14.3" font-family="Times,serif" font-size="14.00" fill="#000000">18</text>
</g>
<!-- 4596799864&#45;&#45;4596799808 -->
<g id="edge4" class="edge">
<title>4596799864&#45;&#45;4596799808</title>
<path fill="none" stroke="#000000" d="M126.8539,-73.4551C121.1616,-62.2241 113.8658,-47.8298 108.1691,-36.5904"/>
</g>
<!-- 4598529832 -->
<g id="node6" class="node">
<title>4598529832</title>
<path fill="none" stroke="#000000" d="M156,-.5C156,-.5 192,-.5 192,-.5 198,-.5 204,-6.5 204,-12.5 204,-12.5 204,-24.5 204,-24.5 204,-30.5 198,-36.5 192,-36.5 192,-36.5 156,-36.5 156,-36.5 150,-36.5 144,-30.5 144,-24.5 144,-24.5 144,-12.5 144,-12.5 144,-6.5 150,-.5 156,-.5"/>
<text text-anchor="middle" x="159" y="-14.3" font-family="Times,serif" font-size="14.00" fill="#000000">20</text>
<polyline fill="none" stroke="#000000" points="174,-.5 174,-36.5 "/>
<text text-anchor="middle" x="189" y="-14.3" font-family="Times,serif" font-size="14.00" fill="#000000">21</text>
</g>
<!-- 4596799864&#45;&#45;4598529832 -->
<g id="edge5" class="edge">
<title>4596799864&#45;&#45;4598529832</title>
<path fill="none" stroke="#000000" d="M145.3933,-73.4551C151.2395,-62.2241 158.7324,-47.8298 164.5831,-36.5904"/>
</g>
<!-- 4596799920 -->
<g id="node7" class="node">
<title>4596799920</title>
<path fill="none" stroke="#000000" d="M234,-.5C234,-.5 264,-.5 264,-.5 270,-.5 276,-6.5 276,-12.5 276,-12.5 276,-24.5 276,-24.5 276,-30.5 270,-36.5 264,-36.5 264,-36.5 234,-36.5 234,-36.5 228,-36.5 222,-30.5 222,-24.5 222,-24.5 222,-12.5 222,-12.5 222,-6.5 228,-.5 234,-.5"/>
<text text-anchor="middle" x="249" y="-14.3" font-family="Times,serif" font-size="14.00" fill="#000000">24</text>
</g>
<!-- 4596800088&#45;&#45;4596799920 -->
<g id="edge6" class="edge">
<title>4596800088&#45;&#45;4596799920</title>
<path fill="none" stroke="#000000" d="M249,-73.4551C249,-62.2241 249,-47.8298 249,-36.5904"/>
</g>
<!-- 4596799976 -->
<g id="node8" class="node">
<title>4596799976</title>
<path fill="none" stroke="#000000" d="M306,-.5C306,-.5 342,-.5 342,-.5 348,-.5 354,-6.5 354,-12.5 354,-12.5 354,-24.5 354,-24.5 354,-30.5 348,-36.5 342,-36.5 342,-36.5 306,-36.5 306,-36.5 300,-36.5 294,-30.5 294,-24.5 294,-24.5 294,-12.5 294,-12.5 294,-6.5 300,-.5 306,-.5"/>
<text text-anchor="middle" x="309" y="-14.3" font-family="Times,serif" font-size="14.00" fill="#000000">45</text>
<polyline fill="none" stroke="#000000" points="324,-.5 324,-36.5 "/>
<text text-anchor="middle" x="339" y="-14.3" font-family="Times,serif" font-size="14.00" fill="#000000">48</text>
</g>
<!-- 4596800088&#45;&#45;4596799976 -->
<g id="edge7" class="edge">
<title>4596800088&#45;&#45;4596799976</title>
<path fill="none" stroke="#000000" d="M267.5393,-73.4551C279.0779,-62.2241 293.8667,-47.8298 305.414,-36.5904"/>
</g>
</g>
</svg>
